<svg width="20" height="20" viewBox="0 0 20 20" fill="none" xmlns="http://www.w3.org/2000/svg">
<path d="M14.7141 13.8808L11.1783 17.4167C11.0236 17.5715 10.84 17.6942 10.6379 17.778C10.4358 17.8618 10.2191 17.9049 10.0003 17.9049C9.78155 17.9049 9.5649 17.8618 9.36279 17.778C9.16067 17.6942 8.97705 17.5715 8.82242 17.4167L5.28576 13.8808C4.35344 12.9485 3.71853 11.7606 3.46133 10.4674C3.20412 9.17419 3.33616 7.83376 3.84076 6.61561C4.34535 5.39745 5.19984 4.35628 6.29616 3.62376C7.39248 2.89123 8.68139 2.50024 9.99992 2.50024C11.3184 2.50024 12.6074 2.89123 13.7037 3.62376C14.8 4.35628 15.6545 5.39745 16.1591 6.61561C16.6637 7.83376 16.7957 9.17419 16.5385 10.4674C16.2813 11.7606 15.6464 12.9485 14.7141 13.8808Z" stroke="#4D4E50" stroke-width="1.66667" stroke-linecap="round" stroke-linejoin="round"/>
<path d="M12.5 9.16666C12.5 9.8297 12.2366 10.4656 11.7678 10.9344C11.2989 11.4033 10.663 11.6667 10 11.6667C9.33696 11.6667 8.70107 11.4033 8.23223 10.9344C7.76339 10.4656 7.5 9.8297 7.5 9.16666C7.5 8.50362 7.76339 7.86773 8.23223 7.39889C8.70107 6.93005 9.33696 6.66666 10 6.66666C10.663 6.66666 11.2989 6.93005 11.7678 7.39889C12.2366 7.86773 12.5 8.50362 12.5 9.16666Z" stroke="#4D4E50" stroke-width="1.66667" stroke-linecap="round" stroke-linejoin="round"/>
</svg>
